<mxfile host="app.diagrams.net" modified="2024-07-11T07:42:49.053Z" agent="Mozilla/5.0 (Macintosh; Intel Mac OS X 10_15_7) AppleWebKit/537.36 (KHTML, like Gecko) Chrome/126.0.0.0 Safari/537.36 Edg/126.0.0.0" etag="OK-OoeWcNWr8T5Wb_Dpd" version="24.6.4" type="device">
  <diagram name="Page-1" id="cddb7oONEilqIw1Y7nf5">
    <mxGraphModel dx="748" dy="690" grid="1" gridSize="10" guides="1" tooltips="1" connect="1" arrows="1" fold="1" page="1" pageScale="1" pageWidth="850" pageHeight="1100" math="0" shadow="0">
      <root>
        <mxCell id="0" />
        <mxCell id="1" parent="0" />
        <mxCell id="e_Se_iOjKQHndGvTYtJ0-12" value="" style="rounded=0;whiteSpace=wrap;html=1;fillColor=#f5f5f5;fontColor=#333333;strokeColor=#666666;" parent="1" vertex="1">
          <mxGeometry x="160" y="240" width="260" height="230" as="geometry" />
        </mxCell>
        <mxCell id="e_Se_iOjKQHndGvTYtJ0-1" value="&lt;b&gt;Core:&lt;/b&gt; Agent and Agent Runtime" style="rounded=1;whiteSpace=wrap;html=1;fillColor=#e1d5e7;strokeColor=#9673a6;" parent="1" vertex="1">
          <mxGeometry x="170" y="380" width="240" height="50" as="geometry" />
        </mxCell>
        <mxCell id="e_Se_iOjKQHndGvTYtJ0-2" value="&lt;b&gt;AI Components: &lt;/b&gt;Base Agents, Models, Tools, Memory, etc." style="rounded=1;whiteSpace=wrap;html=1;fillColor=#fff2cc;strokeColor=#d6b656;" parent="1" vertex="1">
          <mxGeometry x="170" y="250" width="240" height="60" as="geometry" />
        </mxCell>
        <mxCell id="e_Se_iOjKQHndGvTYtJ0-4" value="&lt;b&gt;Application Components&lt;/b&gt;: Runtime Implementations, Loggings, etc." style="rounded=1;whiteSpace=wrap;html=1;fillColor=#d5e8d4;strokeColor=#82b366;" parent="1" vertex="1">
          <mxGeometry x="170" y="320" width="240" height="50" as="geometry" />
        </mxCell>
        <mxCell id="e_Se_iOjKQHndGvTYtJ0-6" value="Multi-Agent Applications" style="rounded=1;whiteSpace=wrap;html=1;fillColor=#dae8fc;strokeColor=#6c8ebf;" parent="1" vertex="1">
          <mxGeometry x="170" y="183" width="240" height="50" as="geometry" />
        </mxCell>
        <mxCell id="e_Se_iOjKQHndGvTYtJ0-10" value="AGNext" style="text;html=1;align=center;verticalAlign=middle;whiteSpace=wrap;rounded=0;" parent="1" vertex="1">
          <mxGeometry x="260" y="436" width="60" height="30" as="geometry" />
        </mxCell>
      </root>
    </mxGraphModel>
  </diagram>
</mxfile>
